<svg xmlns="http://www.w3.org/2000/svg" width="256" height="256" viewBox="0 0 100 100"><rect width="100" height="100" rx="50" fill="#595576" data-darkreader-inline-fill="" style="--darkreader-inline-fill:#1a0b83;"></rect><path d="M50.42 31.28L50.42 31.28Q50.42 32.94 49.50 34.15Q48.59 35.35 47.43 36.01L47.43 36.01Q45.27 34.60 42.61 33.44Q39.96 32.28 36.06 32.28L36.06 32.28Q29.00 32.28 24.81 36.84Q20.62 41.41 20.62 50.04L20.62 50.04Q20.62 58.84 24.93 63.24Q29.25 67.64 36.55 67.64L36.55 67.64Q40.37 67.64 43.15 66.60Q45.93 65.56 48.09 64.15L48.09 64.15Q49.25 64.90 50 66.19Q50.75 67.47 50.75 69.13L50.75 69.13Q50.75 70.54 50 71.70Q49.25 72.87 47.51 73.78L47.51 73.78Q45.85 74.78 42.82 75.65Q39.79 76.52 35.31 76.52L35.31 76.52Q29.83 76.52 25.14 74.90Q20.45 73.28 16.97 70.00Q13.48 66.72 11.49 61.74Q9.50 56.76 9.50 50.04L9.50 50.04Q9.50 43.57 11.49 38.63Q13.48 33.69 16.92 30.33Q20.37 26.97 24.98 25.22Q29.58 23.48 34.73 23.48L34.73 23.48Q38.30 23.48 41.20 24.10Q44.11 24.73 46.18 25.81Q48.26 26.88 49.34 28.30Q50.42 29.71 50.42 31.28ZM86.85 75.19L59.30 75.19Q58.30 74.28 57.72 73.12Q57.14 71.95 57.14 70.54L57.14 70.54Q57.14 69.13 57.76 67.93Q58.38 66.72 59.30 65.56L59.30 65.56L76.89 44.15L58.63 44.15Q58.22 43.48 57.89 42.36Q57.55 41.24 57.55 40.00L57.55 40.00Q57.55 37.84 58.55 36.84Q59.55 35.85 61.21 35.85L61.21 35.85L87.60 35.85Q88.59 36.76 89.18 37.92Q89.76 39.09 89.76 40.58L89.76 40.58Q89.76 41.91 89.13 43.11Q88.51 44.31 87.60 45.48L87.60 45.48L70.09 66.97L89.43 66.97Q89.84 67.64 90.17 68.72Q90.50 69.80 90.50 71.04L90.50 71.04Q90.50 73.20 89.51 74.19Q88.51 75.19 86.85 75.19L86.85 75.19Z" fill="#fff"></path></svg>